<svg xmlns="http://www.w3.org/2000/svg" data-name="Layer 1" width="951.2" height="632.2" viewBox="0 0 951.23547 632.16225" xmlns:xlink="http://www.w3.org/1999/xlink"><path d="M 465.6 496.9 c 32.6 -57.3 94.8 -101.4 160.6 -97.1 a 303.9 303.9 0 0 0 -79.9 192.7 c -1.1 27.6 0.6 58.5 -17.8 79.2 c -11.4 12.9 -28.9 19.1 -46 20.4 c -17.2 1.3 -34.3 -1.8 -51.3 -4.9 l -4.1 1.3 C 425.5 622.6 433 554.2 465.6 496.9 Z" transform="matrix(1,0,0,1,-124.4,-133.1)" fill="rgb(134, 122, 255)"/><path d="M 626.3 401.1 C 577.6 424.6 536.1 463.7 510.6 511.4 c -5.5 10.3 -10.2 21.3 -12.2 32.8 c -2 11.6 -0.6 22.6 3.3 33.6 c 3.6 10.1 8.5 19.9 9.6 30.7 c 1.2 11.3 -3 21.9 -10.5 30.4 c -9.2 10.3 -21.5 16.7 -33.8 22.5 c -13.6 6.5 -27.9 13 -37.6 25 c -1.2 1.5 -3.4 -0.4 -2.2 -1.9 c 16.8 -21 45.6 -24.9 65.5 -41.8 c 9.3 -7.9 16.3 -18.6 15.9 -31.2 c -0.4 -11 -5.4 -21.2 -9.1 -31.3 c -3.9 -10.7 -5.9 -21.4 -4.5 -32.7 c 1.4 -11.6 5.7 -22.8 10.9 -33.2 c 11.8 -23.5 27.9 -45.1 46.3 -63.7 a 264.4 264.4 0 0 1 73.1 -52.2 c 1.7 -0.8 2.6 1.9 0.9 2.8 Z" transform="translate(-124.4,-133.1)" fill="#ffffff"/><path d="M 518.1 495.5 a 39 39 0 0 1 -11.8 -49.1 c 0.9 -1.7 3.5 -0.4 2.6 1.2 a 36.1 36.1 0 0 0 11 45.6 c 1.5 1.1 -0.4 3.3 -1.9 2.2 Z" transform="matrix(1,0,0,1,-124.4,-133.1)" fill="#ffffff"/><path d="M 499.2 573 A 75.1 75.1 0 0 0 546.8 545.9 c 1.2 -1.5 3.4 0.4 2.2 1.9 A 78.1 78.1 0 0 1 499.4 575.9 c -1.9 0.3 -2.1 -2.6 -0.2 -2.9 Z" transform="translate(-124.4,-133.1)" fill="#ffffff"/><path d="M 574.9 432.7 a 22.1 22.1 0 0 0 19.7 7 c 1.9 -0.3 2.1 2.6 0.2 2.9 a 24.7 24.7 0 0 1 -21.8 -7.7 a 1.5 1.5 0 0 1 -0.2 -2.1 a 1.5 1.5 0 0 1 2.1 -0.2 Z" transform="translate(-124.4,-133.1)" fill="#ffffff"/><path fill="rgb(101, 89, 225)" d="M 764.2 578.7 c -1.2 0.2 -2.3 0.4 -3.5 0.7 C 745.3 582.4 730.1 586.6 715.3 592 c -1.1 0.4 -2.3 0.8 -3.4 1.3 C 676.5 606.7 643.8 626.6 615.6 651.9 C 604.4 662 594 672.9 584.4 684.6 c -13.2 16.1 -26.2 34.7 -43.5 45.2 C 539.1 730.9 537.2 731.9 535.3 732.8 l -99.3 -41.2 c -0.2 -0.2 -0.4 -0.4 -0.5 -0.6 l -4 -1.5 c 0.5 -0.6 0.9 -1.3 1.4 -1.9 c 0.3 -0.4 0.5 -0.7 0.8 -1.1 c 0.2 -0.2 0.4 -0.5 0.5 -0.7 c 0.1 -0.1 0.1 -0.2 0.2 -0.2 c 0.1 -0.2 0.3 -0.4 0.5 -0.6 q 4 -5.5 8.1 -10.9 c 0 0 0 0 0 0 c 21 -27.5 44.4 -53.5 71 -75.2 c 0.8 -0.7 1.6 -1.3 2.5 -2 C 528.6 587.2 541.4 578.5 554.9 570.9 C 562.3 566.8 569.9 563 577.7 559.6 C 597.7 550.9 619 545.5 640.7 543.4 c 43.4 -4 87.7 5.9 121 33.2 C 762.5 577.2 763.3 577.9 764.2 578.7 Z" transform="matrix(1,0,0,1,-124.4,-133.1)"/><path d="M 756.4 581.8 c -53 -10.6 -109.7 -4.3 -158.8 18.4 c -10.6 4.9 -20.9 10.8 -29.5 18.8 c -8.6 8 -14.1 17.7 -17.6 28.8 c -3.2 10.2 -5.2 21 -10.8 30.3 c -5.9 9.8 -15.6 15.7 -26.7 17.9 c -13.5 2.7 -27.2 0.4 -40.5 -2.4 c -14.8 -3.1 -30.1 -6.5 -45.1 -2.6 c -1.8 0.5 -2.4 -2.4 -0.6 -2.8 c 26.1 -6.6 51.4 7.5 77.5 6.1 c 12.2 -0.7 24.2 -5.1 31.5 -15.4 c 6.3 -9 8.4 -20.2 11.6 -30.5 c 3.3 -10.9 8.2 -20.6 16.1 -28.8 c 8.2 -8.4 18.3 -14.7 28.7 -19.9 c 23.5 -11.7 49.4 -19.2 75.4 -23 a 264.4 264.4 0 0 1 89.8 2.4 c 1.8 0.4 0.9 3.1 -0.9 2.8 Z" transform="translate(-124.4,-133.1)" fill="#ffffff"/><path d="M 613.2 592 a 39 39 0 0 1 20.2 -46.3 c 1.7 -0.8 3 1.8 1.3 2.6 a 36.1 36.1 0 0 0 -18.7 43.1 c 0.5 1.8 -2.3 2.4 -2.8 0.6 Z" transform="translate(-124.4,-133.1)" fill="#ffffff"/><path d="M 551.5 642.6 a 75.1 75.1 0 0 0 54.3 7 c 1.8 -0.5 2.4 2.4 0.6 2.8 a 78.1 78.1 0 0 1 -56.5 -7.4 c -1.6 -0.9 -0.1 -3.3 1.6 -2.4 Z" transform="translate(-124.4,-133.1)" fill="#ffffff"/><path d="M 6.4 576.1 a 22.1 22.1 0 0 0 11.5 17.5 c 1.7 0.9 0.1 3.3 -1.6 2.4 a 24.7 24.7 0 0 1 -12.8 -19.3 a 1.5 1.5 0 0 1 1.1 -1.7 a 1.5 1.5 0 0 1 1.7 1.1 Z" transform="translate(-124.4,-133.1)" fill="#ffffff"/><path d="M 567.9 648.6 c -13.9 -67.3 -31.3 -89.7 -31.3 -89.7 l -6.6 -5.2 l -8 -6.2 l 0 -0.8 l -1.9 -0.6 l -0.4 -0.3 l -0.7 -0.6 l -0.1 0.1 l -0.2 0.3 l -36.2 -12.3 l -45.9 -15.6 L 415.4 490.1 a 36.7 36.7 0 0 0 -29.4 -14.3 l -67.8 0.5 a 36.7 36.7 0 0 0 -24.7 9.8 l -44.6 41.4 l -69.5 33.2 l -0.1 -0.1 l -0.7 0.5 l -10.7 5.1 l 0.4 2.3 l -6.6 4.8 s -17.4 20.9 -31.3 83.5 c -3.5 15.9 -5.3 50.1 -5.9 92.2 a 16.1 16.1 0 0 0 16.1 16.3 H 511.5 v 0 H 557.8 a 16.1 16.1 0 0 0 16.1 -16.3 C 573.3 703.1 571.5 665.9 567.9 648.6 Z" transform="translate(-124.4,-133.1)" fill="#3f3d56"/><path d="M 615.5 191.7 a 54.4 54.4 0 1 0 0 108.9 H 1021.2 a 54.4 54.4 0 0 0 0 -108.9 Z" transform="translate(-124.4,-133.1)" fill="#e5e5e5"/><path d="M 615.5 202.7 a 43.4 43.4 0 1 0 0 86.8 H 1021.2 a 43.4 43.4 0 0 0 0 -86.8 Z" transform="translate(-124.4,-133.1)" fill="#ffffff"/><circle id="e096411a-cdc3-4e6d-bbd4-4630e1fee17e" data-name="ab6171fa-7d69-4734-b81c-8dff60f9761b" cx="238.3" cy="228.4" r="88.9" fill="rgb(255, 202, 210)"/><path d="M 340 446 q -0.6 -1.3 -1.1 -2.5 c 0.1 0 0.3 0 0.4 0 Z" transform="translate(-124.4,-133.1)" fill="#2f2e41"/><path d="M 271.4 276.6 c 4.5 -3.6 9.7 -6.9 15.5 -6.7 c 5.7 0.2 11.6 5.4 10.4 11 a 91.3 91.3 0 0 1 109.9 -41.2 c 14.3 5 28.3 15.1 31.6 29.9 c 0.8 3.8 1 8 3.4 11 c 3 3.9 8.7 4.8 13.4 3.4 q 0.1 0 0.1 0 a 4.2 4.2 0 0 1 5.1 5.9 l -4 7.5 a 32.4 32.4 0 0 0 15.4 -0.3 a 4.2 4.2 0 0 1 4.5 6.5 c -13.3 18.3 -35.6 30.1 -58.3 30 c -16.1 -0.1 -32.5 -5.7 -48.2 -2 a 41.8 41.8 0 0 0 -28.1 58.7 c -4.8 -5.3 -14.2 -4 -19.1 1.1 c -4.9 5.2 -6.2 12.9 -5.7 20 c 0.8 10.9 5 21.2 9.5 31.2 c -37.8 -1.2 -73.6 -27.7 -85.6 -63.6 C 229 343.3 241.7 300.3 271.4 276.6 Z" transform="translate(-124.4,-133.1)" fill="#2f2e41"/><polygon points="87.5,495.3 112.4,630.9 127.3,632.2 87.5,495.3" opacity="0.2"/><polygon points="362,485 337.1,630.8 322.1,632.2 362,485" opacity="0.2"/><path d="M 292.6 231 c -4.8 2 -9.8 -0.2 -11.9 -5.2 c -2.1 -5.1 -0.1 -10.2 4.7 -12.3 c 4.9 -2 9.8 0.2 11.9 5.3 C 299.5 223.9 297.6 228.9 292.6 231 Z m -9.2 -27.5 l -3.8 1.6 a 4.1 4.1 0 0 1 -5.2 -1.9 l -0.2 -0.4 c -4.1 -7.4 -4.6 -16.3 -1.4 -26.6 c 2.9 -9.2 4.2 -15.7 1.7 -21.6 c -2.8 -6.8 -8.9 -8.9 -16.6 -5.8 c -3 1.3 -4 1.2 -6.3 3.6 a 5.4 5.4 0 0 1 -3.9 1.6 a 5.2 5.2 0 0 1 -3.7 -1.6 a 5.3 5.3 0 0 1 0 -7.3 a 41.5 41.5 0 0 1 14 -9.6 c 16.6 -6.9 25 3.3 28.8 12.5 c 3.7 9 1.6 17.3 -1.7 28 c -2.8 8.9 -2.7 15.6 0.6 22.2 a 4.1 4.1 0 0 1 -2.1 5.5 Z" transform="translate(-124.4,-133.1)" fill="#6c63ff"/><path d="M 705.1 272.1 h -80.7 a 1.9 1.9 0 1 1 0 -3.9 h 80.7 a 1.9 1.9 0 0 1 0 3.9 Z" transform="translate(-124.4,-133.1)" fill="#6c63ff"/><path d="M 807.5 272.8 h -80.7 a 1.9 1.9 0 1 1 0 -3.9 h 80.7 a 1.9 1.9 0 1 1 0 3.9 Z" transform="translate(-124.4,-133.1)" fill="#6c63ff"/><path d="M 909.9 273.4 H 829.2 a 1.9 1.9 0 0 1 0 -3.9 h 80.7 a 1.9 1.9 0 1 1 0 3.9 Z" transform="translate(-124.4,-133.1)" fill="#6c63ff"/><path d="M 1012.3 274.1 h -80.7 a 1.9 1.9 0 0 1 0 -3.9 h 80.7 a 1.9 1.9 0 0 1 0 3.9 Z" transform="translate(-124.4,-133.1)" fill="#6c63ff"/><circle cx="540.2" cy="106.2" r="15" fill="#6c63ff"/><circle cx="643.2" cy="106.2" r="15" fill="#6c63ff"/><circle cx="746.2" cy="106.2" r="15" fill="#6c63ff"/><circle cx="849.2" cy="106.2" r="15" fill="#6c63ff"/></svg>