<svg xmlns="http://www.w3.org/2000/svg" data-name="Layer 1" width="1004" height="764.1" viewBox="0 0 1004 764.13114" xmlns:xlink="http://www.w3.org/1999/xlink"><title>step to the sun</title><path d="M 843.9 211.9 a 83 83 0 0 0 7.1 -9 l -44.8 -10.5 l 49 3.7 a 83 83 0 0 0 6 -65.4 l -68.1 29.7 L 856.7 119.9 a 82.8 82.8 0 1 0 -142.7 83.3 a 82.9 82.9 0 0 0 -10.4 14.4 l 56.8 34.5 l -61.3 -25.3 a 82.9 82.9 0 0 0 8.1 78.5 a 82.8 82.8 0 0 0 40.8 135.7 a 28.5 28.5 0 0 0 -2.3 9.5 a 27.3 27.3 0 0 0 2.7 14 a 28.3 28.3 0 0 0 -1.9 27.6 a 28.3 28.3 0 0 0 -1.9 27.6 a 28.3 28.3 0 0 0 -1.9 27.6 a 27.3 27.3 0 0 0 -4.5 13.6 c -0.8 12.5 6.2 23.1 15.7 23.7 s 17.9 -9 18.8 -21.4 a 27.3 27.3 0 0 0 -2.7 -14 a 28.3 28.3 0 0 0 1.9 -27.6 a 28.3 28.3 0 0 0 1.9 -27.6 a 28.3 28.3 0 0 0 1.9 -27.6 a 27.3 27.3 0 0 0 4.5 -13.6 a 28.5 28.5 0 0 0 -1 -9.8 a 82.8 82.8 0 0 0 57.9 -128.9 a 82.8 82.8 0 0 0 6.8 -102.2 Z" transform="translate(-98,-67.9)" fill="#f2f2f2"/><path d="M 934.4 577.1 c 0 12.2 -86.1 54.1 -188.7 54.1 S 562.8 589.4 562.8 577.1 s 80.2 9.8 182.8 9.8 S 934.4 564.9 934.4 577.1 Z" transform="translate(-98,-67.9)" fill="#3f3d56"/><path d="M 934.4 577.1 c 0 12.2 -86.1 54.1 -188.7 54.1 S 562.8 589.4 562.8 577.1 s 80.2 9.8 182.8 9.8 S 934.4 564.9 934.4 577.1 Z" transform="translate(-98,-67.9)" opacity="0.1"/><ellipse cx="650.6" cy="509.2" rx="185.8" ry="22.1" fill="#3f3d56"/><ellipse cx="655" cy="512.1" rx="63" ry="18" opacity="0.1"/><path d="M 766.8 460.5 a 27.3 27.3 0 0 0 3.6 -13.8 c 0 -12.5 -7.7 -22.6 -17.3 -22.6 s -17.3 10.1 -17.3 22.6 a 27.3 27.3 0 0 0 3.6 13.8 a 28.3 28.3 0 0 0 0 27.7 a 28.3 28.3 0 0 0 0 27.7 a 28.3 28.3 0 0 0 0 27.7 a 27.3 27.3 0 0 0 -3.6 13.8 c 0 12.5 7.7 22.6 17.3 22.6 s 17.3 -10.1 17.3 -22.6 a 27.3 27.3 0 0 0 -3.6 -13.8 a 28.3 28.3 0 0 0 0 -27.7 a 28.3 28.3 0 0 0 0 -27.7 a 28.3 28.3 0 0 0 0 -27.7 Z" transform="translate(-98,-67.9)" fill="#3f3d56"/><ellipse cx="655.1" cy="351" rx="17.3" ry="22.6" fill="#3f3d56"/><ellipse cx="655.1" cy="323.4" rx="17.3" ry="22.6" fill="#3f3d56"/><path d="M 817.9 202 a 83 83 0 0 0 6.4 -9.5 l -45.4 -7.5 l 49.1 0.4 a 83 83 0 0 0 1.6 -65.6 L 763.7 154 L 824.5 109.3 A 82.8 82.8 0 1 0 687.7 202 a 82.9 82.9 0 0 0 -9.4 15.1 l 59 30.6 L 674.3 226.6 a 82.9 82.9 0 0 0 13.4 77.8 a 82.8 82.8 0 1 0 130.2 0 a 82.8 82.8 0 0 0 0 -102.4 Z" transform="translate(-98,-67.9)" fill="#6c63ff"/><path d="M 669.9 253.2 a 82.5 82.5 0 0 0 17.7 51.2 a 82.8 82.8 0 1 0 130.2 0 C 829 290.3 669.9 243.9 669.9 253.2 Z" transform="translate(-98,-67.9)" opacity="0.1"/><path d="M 1048.1 334.6 l 18.7 -16.6 c -37 -6.9 -74.2 25.7 -83.9 73.1 a 9.6 9.6 0 0 0 -1 0.2 l -21 -69 a 120 120 0 0 0 -2.1 24.9 l -16.4 -31.9 c -6.6 35.6 9.2 68.8 35.7 76.7 a 45.4 45.4 0 0 1 -6.6 -0.5 c -0.1 0 -0.2 0 -0.2 0 a 21.2 21.2 0 0 0 0.1 5.3 a 4.7 4.7 0 0 0 1.2 2.6 c 0.8 0.7 3.1 1.7 6.1 2.8 q 0.3 0.1 0.7 0.2 c 1.9 0.6 4.1 1.3 6.3 1.9 c 2.8 0.7 5.7 1.4 8.3 1.9 c 0.3 0.1 0.6 0.1 0.8 0.1 c 0.1 0 0.2 0 0.2 0 c 0.2 0 0.3 0 0.5 0 c 0.1 0 0.2 0 0.2 0 a 3.5 3.5 0 0 0 0.4 -0.1 c 0.1 0 0.1 0 0.2 0 a 2.3 2.3 0 0 0 0.3 -0.1 c 0.1 0 0.1 0 0.1 -0.1 a 1.8 1.8 0 0 0 0.3 -0.2 c 0 0 0.1 0 0.1 -0.1 a 1.6 1.6 0 0 0 0.2 -0.3 c 0 0 0 0 0 0 a 1.8 1.8 0 0 0 0.2 -0.4 c 0 0 0 0 0 0 a 2.4 2.4 0 0 0 0.1 -0.4 c 0 0 0 0 0 0 l 0 0 c 0.5 -3.2 -4 -9.9 -4 -11.8 c -0.1 -1.8 -4.5 -2.3 -8.2 -2.1 l 68.6 -55.4 A 52 52 0 0 0 1048.1 334.6 Z" transform="translate(-98,-67.9)" fill="#f2f2f2"/><path d="M 1102 401.1 c 0 8.3 -58.4 36.7 -128 36.7 s -124 -28.4 -124 -36.7 s 54.4 6.7 124 6.7 S 1102 392.8 1102 401.1 Z" transform="translate(-98,-67.9)" fill="#3f3d56"/><path d="M 1102 401.1 c 0 8.3 -58.4 36.7 -128 36.7 s -124 -28.4 -124 -36.7 s 54.4 6.7 124 6.7 S 1102 392.8 1102 401.1 Z" transform="translate(-98,-67.9)" opacity="0.1"/><ellipse cx="878" cy="333.1" rx="126" ry="15" fill="#3f3d56"/><ellipse cx="878" cy="333.1" rx="27" ry="9" opacity="0.1"/><path d="M 919.9 326.4 c 0 38.2 24 69.1 53.6 69.1" transform="translate(-98,-67.9)" fill="#3f3d56"/><path d="M 973.5 395.5 c 0 -38.6 26.8 -69.9 59.8 -69.9" transform="translate(-98,-67.9)" fill="#6c63ff"/><path d="M 939.3 329.9 c 0 36.3 15.3 65.7 34.2 65.7" transform="translate(-98,-67.9)" fill="#6c63ff"/><path d="M 973.5 395.5 c 0 -49.4 30.9 -89.3 69.1 -89.3" transform="translate(-98,-67.9)" fill="#3f3d56"/><path d="M 962.2 396 s 7.6 -0.2 9.9 -1.9 s 11.7 -3.6 12.3 -1 s 11.4 13 2.8 13.1 s -19.9 -1.3 -22.2 -2.7 S 962.2 396 962.2 396 Z" transform="translate(-98,-67.9)" fill="#a8a8a8"/><path d="M 987.3 405.4 c -8.6 0.1 -19.9 -1.3 -22.2 -2.7 c -1.7 -1.1 -2.4 -4.9 -2.7 -6.6 c -0.2 0 -0.3 0 -0.3 0 s 0.5 6.1 2.8 7.5 s 13.6 2.8 22.2 2.7 c 2.5 0 3.3 -0.9 3.3 -2.2 C 990.1 404.9 989.2 405.4 987.3 405.4 Z" transform="translate(-98,-67.9)" opacity="0.2"/><path d="M 303.7 296.1 l 9.6 15.3 c -3.2 4.3 -5.5 9 -4 12.1 c 3.6 7.6 11.9 17.5 16.4 22.8 s 5.1 19.4 35.2 17.7 s 42.3 -15.3 42.3 -15.3 s 2.7 24.7 15.5 33.6 a 10.7 10.7 0 0 1 -4.2 3.5 c -13.5 6.3 -28.3 56.7 -38.5 84.5 c -11.2 30.2 5.8 25 5.8 25 c 5.7 0.1 10.9 0.4 15.7 0.8 c 5.6 14.8 14.4 46.3 4 78.8 c -7.2 22.7 -5.7 46.7 -2.5 64.7 l -6.8 7.2 c -7.5 2.4 -9.8 7.1 -9.8 7.1 l -17.4 24.2 l 2.9 2.1 l 10.4 -14.4 s 2.3 2 5.4 8.4 s -5.8 31.3 -5.9 33.1 s 7.9 14.7 19.2 18.8 a 5.8 5.8 0 0 0 2.4 0.4 l -1 12 l 6.1 -0.1 l 1.9 -21.8 s 4.7 30.4 5.7 33.5 c 1 3.1 10.8 2.8 21 4.3 s 20.5 -10.5 10 -16.9 s -11.8 -26.7 -11.8 -26.7 c 4.9 -14.9 -6.2 -34.2 -6.2 -34.2 L 423.8 662.9 a 4 4 0 0 1 -2.6 2.3 L 422.7 647.4 c 11.7 -13.4 26.9 -31.3 34.8 -42.1 c 13.9 -19 13.1 -24.6 13.1 -24.6 L 484.8 517.7 a 75.2 75.2 0 0 0 14.2 -0.3 c 9.6 -1.5 6 -33 0.5 -58.5 c 1.5 -6 3.8 -14.3 7.4 -25.8 a 80.6 80.6 0 0 0 3.4 -16.9 c 2.2 -23.3 -5.8 -42.7 -9.3 -49.9 l 1.2 -3 s 11.1 -12.1 2.4 -32.7 a 47.3 47.3 0 0 0 1 -6.6 a 49.3 49.3 0 0 0 -6.2 -28.2 c -0.1 -0.1 -0.1 -0.2 -0.2 -0.3 l -0.1 -0.1 l 0 0 a 3.2 3.2 0 0 0 -0.3 -0.3 c -3.5 -3.6 -21.5 -10.4 -25.2 -11.8 a 1.8 1.8 0 0 0 -0.7 -0.2 c -1.4 -0.1 0.1 -6 1.6 -11.3 a 25.7 25.7 0 0 0 5 -5.1 a 48.7 48.7 0 0 0 15 -80.6 a 25.6 25.6 0 0 0 -8.3 -37.2 a 25.6 25.6 0 0 1 4.8 34.2 q -0.8 -0.6 -1.7 -1.2 a 25.6 25.6 0 1 0 -49.2 -4.2 a 48.7 48.7 0 0 0 -8.6 82.7 a 34 34 0 0 1 -30.9 -1.1 a 34 34 0 0 0 35.8 4.7 a 25.7 25.7 0 0 0 9.2 9.7 a 15.2 15.2 0 0 1 -1.6 3.3 l -1.6 -1.2 l -6.7 7.4 l -17.4 3.4 s -11.1 1.5 -23.8 13.8 s -34 18.5 -34 18.5 L 343.8 314.2 s -19.2 -10.8 -19 -13.3 c 0 -0.4 -0.4 -0.3 -1.2 0.2 l -9.4 -18.9 S 296.5 238.6 285.2 249.2 S 303.7 296.1 303.7 296.1 Z m 124.2 289.7 l 0.4 -5 c 5.7 -8.1 8.9 -27.9 10.7 -46.4 l -2.6 44.6 A 30.1 30.1 0 0 0 428 585.8 Z m -23.3 94.4 l -0.1 6.8 a 41.6 41.6 0 0 0 -4.1 10.5 C 400 694.2 402.2 687 404.7 680.2 Z" transform="translate(-98,-67.9)" fill="#f2f2f2"/><path d="M 714.2 742.4 c 0 20.3 -142.8 89.7 -313 89.7 S 98 762.7 98 742.4 s 133 16.3 303.2 16.3 S 714.2 722.2 714.2 742.4 Z" transform="translate(-98,-67.9)" fill="#3f3d56"/><path d="M 714.2 742.4 c 0 20.3 -142.8 89.7 -313 89.7 S 98 762.7 98 742.4 s 133 16.3 303.2 16.3 S 714.2 722.2 714.2 742.4 Z" transform="translate(-98,-67.9)" opacity="0.1"/><ellipse cx="308.1" cy="674.5" rx="308.1" ry="36.7" fill="#3f3d56"/><ellipse cx="310" cy="668.1" rx="102" ry="22" opacity="0.1"/><path d="M 397.6 258.1 a 33.9 33.9 0 0 0 -1.2 -54.9 a 33.9 33.9 0 1 1 -33.3 58.8 A 33.9 33.9 0 0 0 397.6 258.1 Z" transform="translate(-98,-67.9)" fill="#2f2e41"/><path d="M 458.8 289.7 h 5.5 a 48.8 48.8 0 0 1 7.3 40.2 c -6.1 23.1 -1.2 27.4 -1.2 27.4 s 21.9 31.1 13.4 68.8 s -6.1 42 -6.1 42 l -15.2 -30.5 l -8.5 -80.4 Z" transform="translate(-98,-67.9)" fill="#6c63ff"/><path d="M 458.8 289.7 h 5.5 a 48.8 48.8 0 0 1 7.3 40.2 c -6.1 23.1 -1.2 27.4 -1.2 27.4 s 21.9 31.1 13.4 68.8 s -6.1 42 -6.1 42 l -15.2 -30.5 l -8.5 -80.4 Z" transform="translate(-98,-67.9)" opacity="0.1"/><circle cx="322.2" cy="151.4" r="48.7" fill="#2f2e41"/><path d="M 439.6 260.1 s -4.9 19.5 -2.4 19.5 S 448.2 290 448.2 290 l 5.5 20.1 l -4.3 14.6 l -14.6 -3 l -18.3 -20.1 l -5.5 -5.5 l -4.9 -17.7 s 6.1 -7.3 1.8 -13.4 S 439.6 260.1 439.6 260.1 Z" transform="translate(-98,-67.9)" fill="#fbbebe"/><path d="M 439.6 260.1 s -4.9 19.5 -2.4 19.5 S 448.2 290 448.2 290 l 5.5 20.1 l -4.3 14.6 l -14.6 -3 l -18.3 -20.1 l -5.5 -5.5 l -4.9 -17.7 s 6.1 -7.3 1.8 -13.4 S 439.6 260.1 439.6 260.1 Z" transform="matrix(1,0,0,1,-98,-67.9)" opacity="0.1"/><path d="M 292.2 314.4 l -13.4 -21.9 S 264.4 260.4 254 272 s 15.7 35.1 15.7 35.1 l 13.4 17.7 Z" transform="matrix(1,0,0,1,-98,-67.9)" fill="#fbbebe"/><path d="M 470.1 505 l -9.7 71.3 s 1.2 5.5 -11 25.6 s -45.1 64 -45.1 64 l -9.7 -18.3 s 11.6 -57.9 31.7 -70.1 l -2.4 -87.7 Z" transform="translate(-98,-67.9)" fill="#fbbebe"/><path d="M 470.1 505 l -9.7 71.3 s 1.2 5.5 -11 25.6 s -45.1 64 -45.1 64 l -9.7 -18.3 s 11.6 -57.9 31.7 -70.1 l -2.4 -87.7 Z" transform="translate(-98,-67.9)" opacity="0.1"/><path d="M 394.6 640.3 l 13.4 25.6 s -11 31.1 -6.7 34.1 s 9.7 30.5 -1.8 27.4 s -20.7 -15.2 -20.7 -17.1 s 6.7 -27.4 3 -33.5 s -6.1 -7.9 -6.1 -7.9 l -9.1 15.2 L 363.5 682.3 l 15.2 -25.6 s 1.8 -4.9 9.1 -7.9 Z" transform="translate(-98,-67.9)" fill="#2f2e41"/><path d="M 394.6 640.3 l 13.4 25.6 s -11 31.1 -6.7 34.1 s 9.7 30.5 -1.8 27.4 s -20.7 -15.2 -20.7 -17.1 s 6.7 -27.4 3 -33.5 s -6.1 -7.9 -6.1 -7.9 l -9.1 15.2 L 363.5 682.3 l 15.2 -25.6 s 1.8 -4.9 9.1 -7.9 Z" transform="translate(-98,-67.9)" opacity="0.1"/><path d="M 424 494.9 s 4.7 67.4 -5.6 85 v 87.7 l -14 1.8 s -23.8 -47.5 -13.4 -93.2 s -15.2 -86.5 -15.2 -86.5 Z" transform="matrix(1,0,0,1,-98,-67.9)" fill="#fbbebe"/><circle cx="322.5" cy="181.6" r="25.6" fill="#fbbebe"/><path d="M 446.3 316.8 l -25.6 -32.3 l -14.6 -9.7 l -6.1 7.9 l -17.1 4.9 s -11 2.4 -22.5 15.8 s -32.3 21.3 -32.3 21.3 L 311.1 321.7 s -20.1 -9.1 -20.1 -11.6 s -17.7 16.4 -13.4 23.8 s 13.4 16.4 18.3 21.3 s 6.7 18.9 36.6 14.6 S 373.2 350.9 373.2 350.9 s 5.5 28 21.3 33.5 s 67.6 9.1 67.6 9.1 l 11 -36.6 s 12.2 -15.8 -4.3 -39 c 0 0 -0.3 -12.9 -2.1 -21.6 c -0.7 -3.4 -1.6 -6 -2.8 -7.1 c -4.3 -3.7 -26.8 -9.7 -26.8 -9.7 s 3.7 12.2 5.5 12.8 S 448.8 313.8 446.3 316.8 Z" transform="translate(-98,-67.9)" fill="#6c63ff"/><path d="M 364.4 498.6 c 30.7 -2.1 48.5 2.9 56.5 6.7 a 20.2 20.2 0 0 1 4.2 2.5 c 0.6 0.5 0.9 0.9 0.9 1.1 c 0 1.8 42 5.5 57.3 1.8 S 472.8 428.6 466.1 421.9 s -3.1 -31.2 -3.1 -31.2 s -13.4 -2.9 -17 -1.7 s -22.5 -1.8 -29.2 -5.5 s -15.2 -1.2 -20.7 -2.4 c -2.4 -0.5 -3.7 0.4 -4.3 1.6 a 10.5 10.5 0 0 1 -4.2 4.2 c -12.9 7.5 -23.3 59 -31.1 87.4 C 348 505.3 364.4 498.6 364.4 498.6 Z" transform="translate(-98,-67.9)" fill="#2f2e41"/><path d="M 420.8 662.2 l 2.4 13.4 s 12.8 18.3 9.1 33.5 c 0 0 3 20.1 14 25.6 s 1.8 18.3 -8.5 17.7 s -20.1 0.6 -21.3 -2.4 s -8.5 -32.9 -8.5 -32.9 v 21.9 l -6.1 0.6 V 712.2 s -4.9 -9.1 1.8 -24.4 l -1.7 -23.4 S 418.9 668.3 420.8 662.2 Z" transform="translate(-98,-67.9)" fill="#2f2e41"/><circle cx="322.2" cy="102.7" r="25.6" fill="#2f2e41"/><path d="M 439.8 186.1 a 25.6 25.6 0 0 0 -0.9 -41.4 a 25.6 25.6 0 1 1 -25.1 44.4 A 25.6 25.6 0 0 0 439.8 186.1 Z" transform="translate(-98,-67.9)" fill="#2f2e41"/><ellipse cx="322.8" cy="161.1" rx="26.2" ry="20.7" fill="#2f2e41"/><path d="M 420.9 505.4 a 20.2 20.2 0 0 1 4.2 2.5 c 0.3 -5.8 2.2 -40.6 0 -40 Z" transform="translate(-98,-67.9)" opacity="0.1"/><circle cx="108" cy="146.1" r="86" fill="#ff6584"/><ellipse cx="257" cy="282" rx="3" ry="7" transform="translate(-205,328.4) rotate(-65.1)" fill="#fbbebe"/></svg>