<svg xmlns="http://www.w3.org/2000/svg" data-name="Layer 1" width="896" height="748" viewBox="0 0 896 747.97143" xmlns:xlink="http://www.w3.org/1999/xlink"><title>empty_cart</title><path d="M 193.6 788.8 c 12.4 23 38.8 32.9 38.8 32.9 s 6.2 -27.5 -6.2 -50.5 s -38.8 -32.9 -38.8 -32.9 S 181.2 765.7 193.6 788.8 Z" transform="translate(-152,-76)" fill="#2f2e41"/><path d="M 202.2 781.2 c 22.4 13.5 31.1 40.3 31.1 40.3 s -27.7 4.9 -50.2 -8.6 S 152 772.6 152 772.6 S 179.7 767.7 202.2 781.2 Z" transform="translate(-152,-76)" fill="#4f46e5"/><rect x="413.2" y="35.9" width="140" height="2" fill="#f2f2f2"/><rect x="513.2" y="37.4" width="2" height="18.5" fill="#f2f2f2"/><rect x="452.2" y="37.4" width="2" height="18.5" fill="#f2f2f2"/><rect x="484.2" y="131.9" width="140" height="2" fill="#f2f2f2"/><rect x="522.2" y="113.9" width="2" height="18.5" fill="#f2f2f2"/><rect x="583.2" y="113.9" width="2" height="18.5" fill="#f2f2f2"/><rect x="670.2" y="176.9" width="140" height="2" fill="#f2f2f2"/><rect x="708.2" y="158.9" width="2" height="18.5" fill="#f2f2f2"/><rect x="769.2" y="158.9" width="2" height="18.5" fill="#f2f2f2"/><rect x="656.2" y="640.9" width="140" height="2" fill="#f2f2f2"/><rect x="694.2" y="622.9" width="2" height="18.5" fill="#f2f2f2"/><rect x="755.2" y="622.9" width="2" height="18.5" fill="#f2f2f2"/><rect x="417.2" y="319.9" width="140" height="2" fill="#f2f2f2"/><rect x="455.2" y="301.9" width="2" height="18.5" fill="#f2f2f2"/><rect x="516.2" y="301.9" width="2" height="18.5" fill="#f2f2f2"/><rect x="461.2" y="560.9" width="140" height="2" fill="#f2f2f2"/><rect x="499.2" y="542.9" width="2" height="18.5" fill="#f2f2f2"/><rect x="560.2" y="542.9" width="2" height="18.5" fill="#f2f2f2"/><rect x="685.2" y="487.9" width="140" height="2" fill="#f2f2f2"/><rect x="723.2" y="469.9" width="2" height="18.5" fill="#f2f2f2"/><rect x="784.2" y="469.9" width="2" height="18.5" fill="#f2f2f2"/><polygon points="362.1,702.2 125.3,702.2 125.3,700.5 360.4,700.5 360.4,617.9 145.2,617.9 134.7,596.1 136.3,595.3 146.3,616.2 362.1,616.2 362.1,702.2" fill="#2f2e41"/><circle cx="156.8" cy="726" r="17.9" fill="#3f3d56"/><circle cx="333.1" cy="726" r="17.9" fill="#3f3d56"/><circle cx="540.9" cy="346.2" r="11.1" fill="#3f3d56"/><path d="M 539.4 665.8 H 273.2 L 215.6 477.5 H 598.7 l -0.3 1.1 Z m -264.9 -1.7 H 538.1 l 58.2 -184.8 H 218 Z" transform="translate(-152,-76)" fill="#2f2e41"/><polygon points="366.6,580 132.8,580 82.3,413 418.7,413 418.4,414 366.6,580" fill="#f2f2f2"/><polygon points="451.5,384.7 449.8,384.3 461.1,341.9 526.4,341.9 526.4,343.6 462.4,343.6 451.5,384.7" fill="#2f2e41"/><rect x="82.3" y="458.6" width="345.3" height="1.7" fill="#2f2e41"/><rect x="101.5" y="521.3" width="306.3" height="1.7" fill="#2f2e41"/><rect x="254.3" y="402.4" width="1.7" height="186.5" fill="#2f2e41"/><rect x="385.6" y="570.8" width="186.9" height="1.7" transform="translate(-274.7,936.2) rotate(-86.2)" fill="#2f2e41"/><rect x="334.5" y="478.2" width="1.7" height="186.9" transform="translate(-188.5,-53) rotate(-3.7)" fill="#2f2e41"/><rect y="745" width="896" height="2" fill="#2f2e41"/><path d="M 747.4 137.9 s 14.6 41.6 5.6 48 S 783.4 244.6 783.4 244.6 l 47.2 -12.8 l -25.9 -43.7 s -3.4 -43.7 -3.4 -50.1 S 747.4 137.9 747.4 137.9 Z" transform="translate(-152,-76)" fill="#da9ba4ff"/><path d="M 747.4 137.9 s 14.6 41.6 5.6 48 S 783.4 244.6 783.4 244.6 l 47.2 -12.8 l -25.9 -43.7 s -3.4 -43.7 -3.4 -50.1 S 747.4 137.9 747.4 137.9 Z" transform="matrix(1,0,0,1,-152,-76)" opacity="0.1"/><path d="M 722.9 434.5 s -4.3 53.3 0 81.1 s 10.7 104.5 10.7 104.5 s 0 145.1 23.5 147.2 s 40.5 4.3 42.7 -4.3 s -10.7 -12.8 -4.3 -17.1 s 8.5 -19.2 0 -36.3 s 0 -189.9 0 -189.9 l 40.5 108.8 s 4.3 89.6 8.5 102.4 s -4.3 36.3 10.7 38.4 s 32 -10.7 40.5 -14.9 s -12.8 -4.3 -8.5 -6.4 s 17.1 -8.5 12.8 -10.7 s -8.5 -104.5 -8.5 -104.5 S 879.7 414.2 864.8 405.7 s -24.5 6.2 -24.5 6.2 Z" transform="translate(-152,-76)" fill="#2f2e41"/><path d="M 761.3 758.8 v 17.1 s -19.2 46.4 0 46.4 s 34.1 4.8 34.1 -1.6 V 763.1 Z" transform="translate(-152,-76)" fill="#2f2e41"/><path d="M 887.2 758.8 v 17.1 s 19.2 46.4 0 46.4 s -34.1 4.8 -34.1 -1.6 V 763 Z" transform="translate(-152,-76)" fill="#2f2e41"/><circle cx="625.3" cy="54.4" r="38.4" fill="rgb(218, 155, 164)"/><path d="M 765.5 201.9 s 10.7 32 27.7 25.6 l 17.1 -6.4 L 840.2 425.9 s -23.5 34.1 -57.6 12.8 S 765.5 201.9 765.5 201.9 Z" transform="translate(-152,-76)" fill="#4f46e5"/><path d="M 795.4 195.5 l 9.6 -20.3 s 56.5 26.7 65.1 35.2 s 8.5 21.3 8.5 21.3 l -14.9 53.3 s 4.3 117.4 4.3 121.6 s 14.9 27.7 4.3 19.2 s -12.8 -17.1 -21.3 -4.3 s -27.7 27.7 -27.7 27.7 Z" transform="translate(-152,-76)" fill="#3f3d56"/><path d="M 870.1 349.1 l -6.4 59.7 s -38.4 34.1 -29.9 36.3 s 12.8 -6.4 12.8 -6.4 s 14.9 14.9 23.5 6.4 S 900 355.5 900 355.5 Z" transform="translate(-152,-76)" fill="#da9ba4ff"/><path d="M 778.1 76.1 c -8.5 -0.3 -17.6 -0.5 -24.8 4.1 a 36.3 36.3 0 0 0 -8.6 8.4 c -7 8.8 -13 20 -10.4 30.9 l 3 -1.2 a 19.8 19.8 0 0 1 -1.9 8.5 c 0.4 -1.2 1.8 0.8 1.5 2 L 733.5 139.8 c 5.5 -2 12.3 2.1 13.1 7.8 c 0.4 -12.7 1.7 -27.2 12 -34.6 c 5.2 -3.7 11.7 -4.9 18 -5.9 c 5.8 -0.9 11.9 -1.8 17.5 0.1 s 10.3 7.6 9.1 13.4 c 2.6 -0.9 5.4 0.9 6.7 3.3 s 1.3 5.2 1.4 8 c 2.7 1.9 5.9 -1.9 7 -5.1 c 2.6 -7.4 4.9 -15.3 3.5 -23.1 s -7.7 -15.1 -15.6 -15.2 a 5.5 5.5 0 0 0 1.4 -3.8 l -6.5 -0.5 a 7.2 7.2 0 0 0 4.3 -2.3 C 802.8 84.7 782.3 76.3 778.1 76.1 Z" transform="translate(-152,-76)" fill="#2f2e41"/><path d="M 776.2 189.1 s -17.4 -17 -23.6 -16 S 737.8 189.1 737.8 189.1 s -51.2 17.1 -49.1 34.1 S 714.3 323.5 714.3 323.5 s 19.2 100.3 2.1 111 s 81.1 38.4 83.2 25.6 s 6.4 -140.8 0 -160 S 776.2 189.1 776.2 189.1 Z" transform="translate(-152,-76)" fill="#3f3d56"/><path d="M 850.9 223.2 h 26.4 S 895.7 304.3 897.8 312.9 s 6.4 49.1 4.3 49.1 s -44.8 -8.5 -44.8 -2.1 Z" transform="translate(-152,-76)" fill="#3f3d56"/><path d="M 850 424 H 749 c -9.9 -45.3 -10.7 -89.1 0 -131 H 850 C 833.7 334.1 832.7 377.6 850 424 Z" transform="translate(-152,-76)" fill="#f2f2f2"/><path d="M 707.9 368.3 L 737.8 381.1 s 57.6 8.5 57.6 -14.9 s -57.6 -10.7 -57.6 -10.7 L 718.6 349.4 Z" transform="translate(-152,-76)" fill="#da9ba4ff"/><path d="M 714.3 210.4 l -25.6 6.4 L 669.5 329.9 s -6.4 29.9 4.3 32 S 714.3 381.1 714.3 381.1 s 4.3 -32 12.8 -32 L 705.8 332.1 L 718.6 257.4 Z" transform="translate(-152,-76)" fill="#3f3d56"/><rect x="60.2" y="352.9" width="140" height="2" fill="#f2f2f2"/><rect x="98.2" y="334.9" width="2" height="18.5" fill="#f2f2f2"/><rect x="159.2" y="334.9" width="2" height="18.5" fill="#f2f2f2"/><rect x="109.2" y="56.9" width="140" height="2" fill="#f2f2f2"/><rect x="209.2" y="58.4" width="2" height="18.5" fill="#f2f2f2"/><rect x="148.2" y="58.4" width="2" height="18.5" fill="#f2f2f2"/><rect x="250.2" y="253.9" width="140" height="2" fill="#f2f2f2"/><rect x="350.2" y="255.4" width="2" height="18.5" fill="#f2f2f2"/><rect x="289.2" y="255.4" width="2" height="18.5" fill="#f2f2f2"/><rect x="12.2" y="252.9" width="140" height="2" fill="#f2f2f2"/><rect x="112.2" y="254.4" width="2" height="18.5" fill="#f2f2f2"/><rect x="51.2" y="254.4" width="2" height="18.5" fill="#f2f2f2"/><rect x="180.2" y="152.9" width="140" height="2" fill="#f2f2f2"/><rect x="218.2" y="134.9" width="2" height="18.5" fill="#f2f2f2"/><rect x="279.2" y="134.9" width="2" height="18.5" fill="#f2f2f2"/></svg>