<svg xmlns="http://www.w3.org/2000/svg" width="360" height="360" enable-background="new 0 0 1920 1080" viewBox="0 0 1920 1080">
		<ellipse cx="961.5" cy="743.2" fill="#7c1fff" class="color2a94f4 svgShape" opacity=".1" rx="874.7" ry="36.6" />
		<ellipse cx="453.9" cy="860.8" fill="#7c1fff" class="color2a94f4 svgShape" opacity=".1" rx="82" ry="6.1" />
		<path fill="#8082ff" d="M 1655.4 735.8 H 251.6 c -98.3 0 -178 -79.7 -178 -178 s 79.7 -178 178 -178 h 1403.8 c 98.3 0 178 79.7 178 178 s -79.7 178 -178 178 z" class="colorcce9ff svgShape" />
		<path fill="#40009a" d="M 1651.2 697.1 H 255.8 c -76.9 0 -139.3 -62.4 -139.3 -139.3 s 62.4 -139.3 139.3 -139.3 h 1395.5 c 76.9 0 139.3 62.4 139.3 139.3 s -62.4 139.3 -139.4 139.3 z" class="color0e538c svgShape" opacity=".15" />
		<path fill="#6366f1" d="M 1490.2 697.1 H 255.8 c -76.9 0 -139.3 -62.4 -139.3 -139.3 s 62.4 -139.3 139.3 -139.3 h 1234.5 c 28 0 50.6 22.7 50.6 50.6 v 177.3 c 0 28 -22.7 50.7 -50.7 50.7 z" class="colorffbe55 svgShape" />
		<path fill="#ffffff" d="M 1455.4 580.4 c -0.2 0.6 -7 -17 -6.1 -23.4 c 0.9 -6.4 11 -23.4 11 -23.4 s 4.1 8.2 2.2 16 c -1.7 7.9 -3.9 23.3 -7.1 30.8 z M 1469.2 608.3 s 30.7 -13.1 34.5 -18.1 c 3.7 -5 6.1 -7.3 6.1 -7.3 s -0.1 16 -5.8 20 c -5.6 4.1 -34.8 5.4 -34.8 5.4 z M 1388.1 634.8 l -3.7 19 l -17 -3.5 l -5.8 23.4 l 3.6 9.1 l -13.3 -12.9 s 5 -24 10.2 -28.4 c 0 0 11.3 3 15.7 1.5 c 4.5 -1.5 14.7 -16.6 14.7 -16.6 l -4.4 8.4 z" class="colorfff svgShape" />
		<path fill="#ffffff" d="M 1460.3 574 s 6 -7.1 8.4 -20 c 2.4 -12.9 1.5 -20 1.5 -20 s -12.9 14.3 -14.4 24.7 c -1.5 10.4 0.9 17.1 0.9 17.1 s -4.5 3.8 -6.3 10.9 c -1.7 7.1 -1.8 11.4 -14.9 17.9 c -13.2 6.5 -48.8 18.8 -48.8 18.8 s -3.8 12.6 -4.3 18.1 c -0.6 5.5 -1.4 6.9 -1.4 6.9 l -16.6 -1.8 s -7.2 22.9 -7.6 25 c -0.4 2.1 7.9 15.4 8.3 16.6 c 0.4 1.2 9.7 -1.5 9.7 -3.4 s -7 -9.9 -7 -9.9 s 1 -16.2 1.6 -16.9 c 0.6 -0.8 24.6 12.6 36.4 5.7 c 11.9 -6.8 9.9 -14.7 9.9 -14.7 s 28.8 -5.4 41.2 -15.3 c 12.5 -9.9 9.6 -12.8 9.6 -12.8 l 16.6 -0.2 l 29.6 -19.6 l 2.7 -11.4 s -6.2 5.7 -9.8 7.7 c -3.5 2 -29.5 10.1 -31.2 8.6 c -1.7 -1.5 0.5 -11.5 0.5 -11.5 s 7.3 -1.7 8.8 -4.8 c 1.5 -3.1 7.6 -9.7 -0.5 -12.1 c -8.2 -2.4 -13.6 -8.6 -22.9 -3.6 z" class="colorfff svgShape" />
		<path fill="#ffffff" d="M 1465.3 617.4 c -1.2 2.3 -2.7 4.5 -4.4 6.5 c -6.3 7.3 -15.7 11.8 -24.8 14.6 c -4.7 1.5 -9.5 3 -14.3 3.6 c -2.6 0.3 -5.4 0.7 -8 0.3 c -0.6 -0.1 -1.1 -0.2 -1.7 -0.3 c -0.9 4.8 -2.8 10.2 -7 13 c -5.7 3.8 -11.9 5.1 -18.4 2.4 c -1.9 -0.8 -3.7 -1.8 -5.5 -2.6 c -0.7 -0.3 -2.7 -0.7 -2 -0.7 c -0.3 0 -0.5 -0.1 -0.8 -0.1 c 1.3 0.2 -4.9 1.3 -2.7 0.4 c -0.6 0.3 -0.9 0.4 -1.1 0.4 c -0.1 0.2 -0.3 0.4 -0.6 0.7 c -0.2 0.3 -1.4 2.5 -1.1 1.9 c -0.2 0.5 -0.4 0.9 -0.6 1.4 c 6.9 2.8 24 10.2 33.5 4.8 c 11.9 -6.8 9.9 -14.7 9.9 -14.7 s 28.8 -5.4 41.2 -15.3 c 7.9 -6.3 9.6 -9.7 9.9 -11.4 c -0.8 -1.5 -1.3 -3.2 -1.5 -4.9 z M 1375.9 625 c -0.9 -6 3.2 -11.5 9.1 -12.5 c 6 -0.9 11.5 3.2 12.5 9.1 c 0.9 6 -3.2 11.5 -9.1 12.5 c -6 1 -11.6 -3.1 -12.5 -9.1 z" class="colorfff svgShape" />
		<path fill="#d0aeff" d="M 462.9 795.1 l 19.8 53.1 l 31.4 2.7 l 16.1 -2.4 l -33.7 -10.7 l -15.6 -49.1 z" class="colorfcd2b1 svgShape" />
		<path fill="rgb(48, 42, 42)" d="M 343.1 682.2 l 74.4 2.5 l 58.9 150.6 l 19.5 -4.6 l -52.2 -179.9 s -3.7 -9.9 -26.2 -11.3 c -21.8 -1.4 -109.7 -9.4 -119.9 -7.1 c -24.1 5.6 50.8 29 45.5 49.8 z M 321.4 447.7 c -6.9 12.9 -28.9 7.8 -28.9 7.8 c -12.3 -7.3 -16.7 -23.6 -9.7 -36.5 l 4.7 -8.8 c 6.9 -12.9 22.5 -17.5 34.8 -10.2 l 5.6 3.3 c 12.3 7.3 18.2 27.6 3.7 41.1 l -10.2 3.3 z" class="color0e538c svgShape" />
		<path fill="#e0caff" d="M 336.4 420 c -1.2 2.1 -2.5 4.2 -4.1 6.3 c -10.3 13.6 -25.1 19.9 -35.3 15.7 c -3.9 6.6 -8.5 12 -12.9 16.2 c -4.9 4.9 -14.9 7.2 -14.9 7.2 c -7.2 9.5 -5.1 38.4 18.6 42.8 c 14.2 2.7 12.2 -13.4 7.7 -23.6 c -2.1 -4.8 -2 -7.5 -1.4 -10 c 2.3 -9 6.3 -13 11.6 -15.8 c 3 -1.2 5.8 -1.3 8.2 -1.1 c 5.4 0.6 10.6 -1.9 13.3 -6.6 l 8.3 -14.4 c 2.9 -5.3 3 -11.5 0.9 -16.7 z" class="colorffe3ca svgShape" />
		<path fill="#d0aeff" d="M 389 801.8 l -0.9 36.3 l 6.6 9.1 l 18 12.5 L 410 842 l -6.6 -4.7 l 0.3 -38.1 z" class="colorfcd2b1 svgShape" />
		<path fill="rgb(48, 42, 42)" d="M 252.9 601.9 l 7.7 22.8 l 15.3 2.9 l 123.8 16 s 11.3 -2.9 17.4 16 c 8.6 26.9 -10.5 173.8 -10.5 173.8 l -18.4 -1.4 l -4.5 -141 s -120.6 14.5 -154.4 1.3 c -13 -5.1 -21.7 -30.2 -18.4 -54.7 c 2.6 -19.3 15.9 -36.3 15.9 -36.3 l 26.1 0.6 z" class="color0e538c svgShape" />
		<path fill="rgb(160, 122, 255)" d="M 310.9 597.6 c 1.1 -32.9 -1.3 -118.4 -16.5 -118.4 c -1.5 0 -2.9 0.4 -4.1 1.2 c -4.7 -1 -12.2 -6.4 -18.8 -15.6 h -0.1 s -24.7 6.3 -34 10.2 c -6.4 2.7 -7.3 90 -8.1 94.6 c -2.8 16.4 -10.4 34.9 -15.3 47.7 c -3.9 10.2 -4 28.9 -4 28.9 s 18.4 -14.3 39.7 -18.1 c 9.7 -2.2 42.7 0.9 45 2.1 c 2.1 1.1 -0.5 -10.7 -0.8 -16.1 c 2.3 3.5 7.6 5.1 12.5 6.5 c 13.9 3.9 74.9 15.5 74.9 15.5 l 10.5 -3.8 l -80.9 -34.7 z" class="color2a94f4 svgShape" />
		<path fill="#d0aeff" d="M 306.9 606.5 c 16.2 3.3 19.4 14.2 25.3 17.9 c 6 3.7 13.9 6.8 13.9 6.7 c 2.5 -1.7 -5.6 -6.6 -7.8 -9.3 c -2.2 -2.7 -1.2 -3.5 4 -0.7 c 5 2.7 7.2 8.3 10.8 12.2 c 3.1 3.4 4.3 0.9 4.3 0.9 s 0.2 -9.2 -4.3 -14.7 c -5.4 -6.7 -15.8 -10 -17.6 -11.1 c -3.2 -2 -13.9 -4.5 -21.8 -5.1 c -8.9 -0.7 -18.4 0.9 -6.8 3.2 z" class="colorfcd2b1 svgShape" />
		<path fill="rgb(160, 122, 255)" d="M 240.4 581.8 l 13.6 -77.7 s 4.6 -18 0.1 -23.9 c -5.4 -7 -16.4 -5.7 -16.4 -5.7 s -13.2 7 -17.6 69.8 c -3.1 43 -5.2 55.8 12.3 58.8 c 16.4 2.8 85.5 11.1 85.5 11.1 l 3.9 -11.1 l -81.4 -21.3 z" class="color2a94f4 svgShape" />
		<path fill="#e1ccff" d="M 338.1 632.6 l 108.4 6.7 l 0.1 -2.3 l -108.4 -6.7 z" class="colorcce9ff svgShape" />
		<path fill="#e1ccff" d="M 386 633.1 c -0.1 1.8 1.1 3.3 2.6 3.4 l 55.6 3.5 c 1.5 0.1 3.6 -0.9 5.7 -5.4 l 30.4 -51 c 0.1 -2.3 -1.5 -3.8 -3 -3.5 l -57.1 -1.7 c -1.5 0.3 -2.8 1.4 -3.8 3.8 L 386 633.1 z" class="colorcce9ff svgShape" />
		<path fill="#d0aeff" d="M 392.6 636 h -0.6 l -54.3 -3.4 c 1.9 1.2 5.1 2.1 8.8 2.3 l 45.4 2.8 h 0.6 l 45.4 2.8 c 3.7 0.2 7 -0.3 9 -1.2 l -54.3 -3.3 z" class="colorb1dffc svgShape" />
		<path fill="rgb(48, 42, 42)" d="M 316.2 405.7 c 0.4 0.1 19.5 -19.4 -3.2 -25.4 c -19.2 -5.1 -26.5 21.1 3.2 25.4 z" class="color0e538c svgShape" />
		<path fill="rgb(255, 255, 255)" d="M 388.1 838.1 s 2.2 5.6 21.9 3.9 c 0 0 7.6 7.5 17.7 6.7 c 10.1 -0.8 10.8 8.5 10.8 8.5 l 0.1 5.8 l -54.7 -3.2 v -17.4 c 0 -2.4 1.9 -4.3 4.2 -4.3 z M 479.7 840.3 s 3.4 5 22.3 -0.9 c 0 0 9 5.7 18.7 2.8 c 9.7 -3 12.4 6 12.4 6 l 1.3 5.7 l -54.1 8.4 l -3.7 -17 c -0.6 -2.3 0.9 -4.5 3.1 -5 z" class="color1c4454 svgShape" />
		<path fill="#f6efff" d="M 128.4 1472.5 l 13.6 -77.7 s 4.6 -18 0.1 -23.9 c -5.4 -7 -16.4 -5.7 -16.4 -5.7 s -13.2 7 -17.6 69.8 c -3.1 43 -5.2 55.8 12.3 58.8 c 16.4 2.8 85.5 11.1 85.5 11.1 l 3.9 -11.1 l -81.4 -21.3 z" class="colorf7f7f7 svgShape" opacity=".1" />
	</svg>